<svg id="visual" viewBox="0 0 960 540" width="960" height="540" xmlns="http://www.w3.org/2000/svg" xmlns:xlink="http://www.w3.org/1999/xlink" version="1.1"><path d="M0 147L80 156.8C160 166.7 320 186.3 480 190.8C640 195.3 800 184.7 880 179.3L960 174L960 0L880 0C800 0 640 0 480 0C320 0 160 0 80 0L0 0Z" fill="#ffc0cb"></path><path d="M0 363L80 360.3C160 357.7 320 352.3 480 350.5C640 348.7 800 350.3 880 351.2L960 352L960 172L880 177.3C800 182.7 640 193.3 480 188.8C320 184.3 160 164.7 80 154.8L0 145Z" fill="#fcb5c1"></path><path d="M0 422L80 423.8C160 425.7 320 429.3 480 429.3C640 429.3 800 425.7 880 423.8L960 422L960 350L880 349.2C800 348.3 640 346.7 480 348.5C320 350.3 160 355.7 80 358.3L0 361Z" fill="#f8aab7"></path><path d="M0 541L80 541C160 541 320 541 480 541C640 541 800 541 880 541L960 541L960 420L880 421.8C800 423.7 640 427.3 480 427.3C320 427.3 160 423.7 80 421.8L0 420Z" fill="#f49fad"></path></svg>